<svg width="323" height="268" viewBox="0 0 323 268" fill="none" xmlns="http://www.w3.org/2000/svg">
<path d="M79.4022 230.563C68.337 232.376 58.5824 231.724 50.1382 228.607C41.7731 225.376 34.9839 220.403 29.7705 213.69C24.6362 206.861 21.3351 198.965 19.8671 190.002C18.6437 182.533 18.6234 175.531 19.806 168.997C20.9887 162.463 23.6291 156.458 27.7273 150.98C31.9046 145.388 37.8817 140.318 45.6585 135.772C51.023 132.644 57.5253 129.585 65.1652 126.595C72.8052 123.605 81.5108 120.543 91.282 117.409C101.037 114.175 111.769 110.628 123.478 106.767L110.777 117.13C109.211 107.57 105.867 100.908 100.745 97.1452C95.6234 93.3823 87.9114 92.3446 77.6094 94.0319C71.8861 94.9693 66.1608 97.3898 60.4335 101.293C54.7063 105.197 51.2061 111.037 49.9331 118.813L12.8261 112.926C14.5514 98.94 20.1184 86.8817 29.5272 76.7508C38.936 66.6199 52.9408 60.0311 71.5417 56.9846C85.1823 54.7505 97.6555 54.9573 108.961 57.6051C120.267 60.2528 129.52 66.5093 136.718 76.3744C140.749 81.8498 143.541 87.5284 145.092 93.41C146.643 99.2916 148.022 105.917 149.229 113.287L165.377 211.88L131.323 217.458L125.891 184.295L131.882 190.37C126.124 202.459 119.257 211.662 111.28 217.98C103.383 224.182 92.7566 228.376 79.4022 230.563ZM82.4651 197.236C89.6193 196.064 95.4167 193.785 99.8575 190.399C104.377 186.898 107.791 183.22 110.098 179.365C112.5 175.495 114.039 172.328 114.713 169.866C115.998 165.156 116.311 159.889 115.651 154.066C115.07 148.128 114.462 143.217 113.826 139.333L125.762 140.446C114.546 144.328 105.475 147.552 98.5492 150.118C91.6071 152.585 86.0318 154.725 81.8233 156.539C77.6149 158.353 73.9474 160.181 70.8208 162.022C67.2662 164.241 64.4515 166.491 62.3767 168.774C60.381 170.942 58.9902 173.215 58.2044 175.593C57.514 177.956 57.3889 180.482 57.8293 183.171C58.4329 186.856 59.8133 189.902 61.9707 192.31C64.2072 194.602 67.0612 196.18 70.5328 197.043C74.0044 197.906 77.9818 197.97 82.4651 197.236Z" fill="white"/>
<path d="M267.732 264.622C255.122 264.223 243.043 262.506 231.497 259.471C220.032 256.575 210.187 252.073 201.961 245.965C193.869 239.769 188.498 231.62 185.847 221.52C183.495 212.09 183.214 203.019 185.005 194.308C186.822 185.483 189.011 175.544 191.572 164.489L228.079 6.88162L271.997 17.0545L236.123 171.927C234.46 179.107 233.01 185.615 231.771 191.452C230.666 197.2 230.741 202.02 231.994 205.913C234.365 213.306 239.736 218.272 248.108 220.812C256.479 223.352 266.004 225.077 276.681 225.99L267.732 264.622ZM178.176 87.18L186.491 51.2824L310.495 80.0057L302.18 115.903L178.176 87.18Z" fill="white"/>
</svg>
