<svg width="323" height="268" viewBox="0 0 323 268" fill="none" xmlns="http://www.w3.org/2000/svg">
<path d="M79.4023 230.563C68.3371 232.376 58.5825 231.724 50.1383 228.607C41.7732 225.376 34.984 220.403 29.7706 213.69C24.6363 206.861 21.3352 198.965 19.8672 190.002C18.6438 182.533 18.6235 175.531 19.8061 168.997C20.9888 162.463 23.6292 156.458 27.7274 150.98C31.9047 145.388 37.8818 140.318 45.6586 135.772C51.0231 132.644 57.5254 129.585 65.1653 126.595C72.8053 123.605 81.5109 120.543 91.2821 117.409C101.037 114.175 111.769 110.628 123.478 106.767L110.777 117.13C109.211 107.57 105.867 100.908 100.745 97.1453C95.6235 93.3824 87.9115 92.3447 77.6095 94.032C71.8862 94.9694 66.1609 97.3899 60.4336 101.293C54.7064 105.197 51.2062 111.037 49.9332 118.813L12.8262 112.926C14.5515 98.9401 20.1185 86.8818 29.5273 76.7509C38.9361 66.62 52.9409 60.0312 71.5418 56.9847C85.1824 54.7506 97.6556 54.9574 108.961 57.6052C120.267 60.2529 129.52 66.5094 136.718 76.3745C140.749 81.8499 143.54 87.5285 145.092 93.4101C146.643 99.2917 148.022 105.917 149.229 113.287L165.377 211.88L131.323 217.458L125.891 184.295L131.882 190.37C126.124 202.459 119.257 211.662 111.28 217.98C103.383 224.182 92.7567 228.376 79.4023 230.563ZM82.4652 197.236C89.6194 196.064 95.4168 193.785 99.8576 190.399C104.377 186.898 107.791 183.22 110.098 179.365C112.5 175.495 114.039 172.328 114.713 169.866C115.998 165.156 116.311 159.889 115.651 154.066C115.07 148.128 114.462 143.217 113.826 139.333L125.762 140.446C114.546 144.328 105.475 147.552 98.5493 150.118C91.6072 152.585 86.0319 154.725 81.8234 156.539C77.615 158.353 73.9475 160.181 70.8209 162.022C67.2663 164.241 64.4516 166.491 62.3768 168.774C60.3811 170.942 58.9903 173.215 58.2045 175.593C57.5141 177.956 57.389 180.482 57.8294 183.171C58.433 186.856 59.8134 189.902 61.9708 192.31C64.2073 194.602 67.0613 196.18 70.5329 197.043C74.0045 197.906 77.9819 197.97 82.4652 197.236Z" fill="white"/>
<path d="M267.732 264.622C255.122 264.223 243.043 262.506 231.497 259.471C220.032 256.575 210.187 252.073 201.961 245.965C193.869 239.769 188.498 231.62 185.847 221.52C183.495 212.09 183.214 203.019 185.005 194.308C186.822 185.483 189.011 175.544 191.572 164.489L228.079 6.88159L271.997 17.0545L236.123 171.927C234.46 179.107 233.01 185.615 231.771 191.452C230.666 197.2 230.741 202.02 231.994 205.913C234.365 213.306 239.736 218.272 248.108 220.812C256.479 223.352 266.004 225.077 276.681 225.99L267.732 264.622ZM178.176 87.18L186.491 51.2824L310.495 80.0057L302.18 115.903L178.176 87.18Z" fill="white"/>
</svg>
